<!--?xml version="1.0" standalone="no"?-->
              <svg id="sw-js-blob-svg" viewBox="0 0 100 100" xmlns="http://www.w3.org/2000/svg" version="1.1">
                    <defs> 
                        <linearGradient id="sw-gradient" x1="0" x2="1" y1="1" y2="0">
                            <stop id="stop1" stop-color="rgba(248, 117, 55, 1)" offset="0%"></stop>
                            <stop id="stop2" stop-color="rgba(251, 168, 31, 1)" offset="100%"></stop>
                        </linearGradient>
                    </defs>
                <path fill="url(#sw-gradient)" d="M20.2,-34C24.2,-28.8,24.1,-19.9,25.3,-12.9C26.5,-5.8,28.9,-0.7,30.3,5.9C31.8,12.5,32.2,20.4,28.5,24.6C24.8,28.9,16.8,29.4,9.4,31.1C2.1,32.9,-4.7,35.8,-11.8,35.7C-18.9,35.7,-26.5,32.6,-32.8,27.3C-39.2,22,-44.3,14.6,-43.9,7.3C-43.5,0,-37.4,-7.2,-31.9,-12.6C-26.4,-18.1,-21.5,-21.9,-16.2,-26.5C-11,-31.1,-5.5,-36.6,1.3,-38.6C8.1,-40.6,16.1,-39.1,20.2,-34Z" width="100%" height="100%" transform="translate(50 50)" stroke-width="0" style="transition: 0.3s;"></path>
              </svg>